# xmcd
#
# Track frame offsets:
#	150
#	17087
#	30834
#	45458
#	56039
#	70986
#	89200
#	103211
#	116252
#	122311
#	143193
#	156592
#	171085
#	184301
#	195056
#	207218
#	219214
#	237314
#	247238
#	264135
#	281300
#	298135
#
# Disc length: 4133 seconds
#
# Revision: 2
# Processed by: cddbd v1.5.2PL0 Copyright (c) Steve Scherf et al.
# Submitted via: audiograbber 1.83.01
#
DISCID=3d102316
DTITLE=The Animals - Don't Bring Me Down (The Decca Years)
DYEAR=2003
DGENRE=Blues
TTITLE0=The Animals - Inside-Looking Out
TTITLE1=The Animals - Outcast
TTITLE2=The Animals - Don't Bring Me Down
TTITLE3=The Animals - Cheating
TTITLE4=The Animals - One Monkey Don't Stop No Show
TTITLE5=The Animals - Maudie
TTITLE6=The Animals - Sweet Little Sixteen
TTITLE7=The Animals - You're On My Mind
TTITLE8=The Animals - Clapping
TTITLE9=The Animals - Gin House Blues
TTITLE10=The Animals - Squeeze Her, Tease Her
TTITLE11=The Animals - What Am I Living For?
TTITLE12=The Animals - I Put A Spell On You
TTITLE13=The Animals - That's All I Am To You
TTITLE14=The Animals - She'll Return It
TTITLE15=Eric Burdon and The Animals - Help Me Girl
TTITLE16=Eric Burdon and The Animals - See See Rider
TTITLE17=Eric Burdon  - Mama Told Me Not To Come
TTITLE18=The Alan Price Rhythm and Blues Combo - I Just Want To Make Love To You 
TTITLE18=[bonus track]
TTITLE19=The Alan Price Rhythm and Blues Combo - Boom Boom [bonus track]
TTITLE20=The Alan Price Rhythm and Blues Combo - Big Boss Man [bonus track]
TTITLE21=The Alan Price Rhythm and Blues Combo - Pretty Thing [bonus track]
EXTD=
EXTT0=
EXTT1=
EXTT2=
EXTT3=
EXTT4=
EXTT5=
EXTT6=
EXTT7=
EXTT8=
EXTT9=
EXTT10=
EXTT11=
EXTT12=
EXTT13=
EXTT14=
EXTT15=
EXTT16=
EXTT17=
EXTT18=
EXTT19=
EXTT20=
EXTT21=
PLAYORDER=
